<svg width="71" height="70" viewBox="0 0 71 70" fill="none" xmlns="http://www.w3.org/2000/svg">
<path d="M44.0099 58.5517H20.0819C17.7499 58.5517 15.8235 56.6253 15.8235 54.2934V26.6139C15.8235 25.3972 16.8374 24.3833 18.0541 24.3833H45.9363C47.153 24.3833 48.1669 25.3972 48.1669 26.6139V54.2934C48.2683 56.7267 46.3419 58.5517 44.0099 58.5517Z" stroke="#90A4AE" stroke-width="3.55048" stroke-miterlimit="10"/>
<path d="M48.2684 30.2632H54.7574C57.0894 30.2632 58.9144 32.0882 58.9144 34.4202V47.2968C58.9144 49.6287 56.988 51.5551 54.656 51.5551H48.2684" stroke="#90A4AE" stroke-width="3.55048" stroke-miterlimit="10" stroke-linecap="round" stroke-linejoin="round"/>
<path d="M27.0779 31.481V51.5562" stroke="#90A4AE" stroke-width="3.55048" stroke-miterlimit="10" stroke-linecap="round" stroke-linejoin="round"/>
<path d="M37.7238 31.481V51.5562" stroke="#90A4AE" stroke-width="3.55048" stroke-miterlimit="10" stroke-linecap="round" stroke-linejoin="round"/>
<path d="M18.8669 23.267C18.8669 23.267 18.2585 15.0544 24.1392 15.0544C24.1392 15.0544 25.3558 9.07241 32.3517 9.78214C38.8407 10.3905 40.0574 16.2711 40.0574 16.2711C40.0574 16.2711 42.1866 16.4739 43.9102 18.4003" stroke="#90A4AE" stroke-width="3.55048" stroke-miterlimit="10" stroke-linecap="round" stroke-linejoin="round"/>
</svg>
