<svg width="71" height="70" viewBox="0 0 71 70" fill="none" xmlns="http://www.w3.org/2000/svg">
<path d="M25.7197 48.5715L20.5218 43.3736C16.9946 39.8464 16.9946 34.2772 20.5218 30.75C21.1715 30.1003 22.2854 30.1003 22.9351 30.75L38.2504 46.1582C38.9002 46.8079 38.9002 47.9217 38.2504 48.5715C34.8161 52.0058 29.1541 52.0058 25.7197 48.5715Z" stroke="#90A4AE" stroke-width="3.50181" stroke-miterlimit="10"/>
<path d="M35.5588 43.6514L25.4414 33.4412C24.8844 32.8843 24.7916 31.8632 25.3485 31.1207L40.7567 11.0715C41.7777 9.77204 43.3557 9.30794 44.191 10.1433L58.8566 24.8089C59.692 25.6443 59.3207 27.2222 57.9284 28.2433L37.8793 43.7442C37.1367 44.3012 36.1157 44.2083 35.5588 43.6514Z" stroke="#90A4AE" stroke-width="3.50181" stroke-miterlimit="10"/>
<path d="M41.0351 31.3055C43.3419 31.3055 45.212 29.4354 45.212 27.1286C45.212 24.8217 43.3419 22.9517 41.0351 22.9517C38.7282 22.9517 36.8582 24.8217 36.8582 27.1286C36.8582 29.4354 38.7282 31.3055 41.0351 31.3055Z" stroke="#90A4AE" stroke-width="3.50181" stroke-miterlimit="10"/>
<path d="M16.6234 55.1607C19.8721 55.1607 19.8721 50.1484 16.6234 50.1484C13.3747 50.1484 13.3747 55.1607 16.6234 55.1607Z" fill="#90A4AE"/>
<path d="M24.4202 59.6148C27.6689 59.6148 27.6689 54.6025 24.4202 54.6025C21.1715 54.6025 21.1715 59.6148 24.4202 59.6148Z" fill="#90A4AE"/>
<path d="M16.8092 63.1431C20.0579 63.1431 20.0579 58.1309 16.8092 58.1309C13.6533 58.1309 13.6533 63.1431 16.8092 63.1431Z" fill="#90A4AE"/>
</svg>
