<svg width="71" height="70" viewBox="0 0 71 70" fill="none" xmlns="http://www.w3.org/2000/svg">
<path d="M35.8074 3.99951V65.8995" stroke="#90A4AE" stroke-width="3.5018" stroke-miterlimit="10" stroke-linecap="round" stroke-linejoin="round"/>
<path d="M29.307 7.69971V17.7997" stroke="#90A4AE" stroke-width="3.5018" stroke-miterlimit="10" stroke-linecap="round" stroke-linejoin="round"/>
<path d="M42.2072 7.80176V17.8018" stroke="#90A4AE" stroke-width="3.5018" stroke-miterlimit="10" stroke-linecap="round" stroke-linejoin="round"/>
<path d="M48.5076 24.0989C48.5076 24.0989 51.1076 37.3989 36.3076 37.3989C36.3076 37.3989 33.7076 23.0989 48.5076 24.0989Z" stroke="#90A4AE" stroke-width="3.5018" stroke-miterlimit="10" stroke-linecap="round" stroke-linejoin="round"/>
<path d="M23.0072 24.0994C23.0072 24.0994 20.4072 37.3994 35.2072 37.3994C35.2072 37.3994 37.8072 23.0994 23.0072 24.0994Z" stroke="#90A4AE" stroke-width="3.5018" stroke-miterlimit="10" stroke-linecap="round" stroke-linejoin="round"/>
<path d="M22.9075 39.7988C23.2075 43.6988 25.3075 49.7988 35.3075 49.7988" stroke="#90A4AE" stroke-width="3.5018" stroke-miterlimit="10" stroke-linecap="round" stroke-linejoin="round"/>
<path d="M48.6073 39.7983C48.3073 43.6983 46.2073 49.7983 36.2073 49.7983" stroke="#90A4AE" stroke-width="3.5018" stroke-miterlimit="10" stroke-linecap="round" stroke-linejoin="round"/>
<path d="M22.9075 52.3003C23.2075 56.2003 25.3075 62.3003 35.3075 62.3003" stroke="#90A4AE" stroke-width="3.5018" stroke-miterlimit="10" stroke-linecap="round" stroke-linejoin="round"/>
<path d="M48.6073 52.3003C48.3073 56.2003 46.2073 62.3003 36.2073 62.3003" stroke="#90A4AE" stroke-width="3.5018" stroke-miterlimit="10" stroke-linecap="round" stroke-linejoin="round"/>
</svg>
