<svg width="71" height="70" viewBox="0 0 71 70" fill="none" xmlns="http://www.w3.org/2000/svg">
<path d="M48.6096 19.0083H19.9344C17.8698 19.0083 16.264 17.4025 16.264 15.3379C16.264 13.2733 17.8698 11.6675 19.9344 11.6675H48.6096C50.6742 11.6675 52.28 13.2733 52.28 15.3379C52.28 17.4025 50.6742 19.0083 48.6096 19.0083Z" stroke="#90A4AE" stroke-width="3.50181" stroke-miterlimit="10"/>
<path d="M13.9688 46.1919H22.8007C23.6036 46.1919 24.4065 46.536 24.98 47.1095C27.5034 49.6329 30.8297 51.124 34.3855 51.124C37.9412 51.124 41.2675 49.6329 43.7909 47.1095C44.3644 46.536 45.1673 46.1919 45.9702 46.1919H54.5728" stroke="#90A4AE" stroke-width="3.50181" stroke-miterlimit="10"/>
<path d="M54.8023 33.4609H45.9703C45.1674 33.4609 44.3645 33.1168 43.791 32.5433C41.2676 30.0199 37.9413 28.5288 34.3856 28.5288C30.8298 28.5288 27.5035 30.0199 24.9801 32.5433C24.4066 33.1168 23.6037 33.4609 22.8008 33.4609H14.0836" stroke="#90A4AE" stroke-width="3.50181" stroke-miterlimit="10"/>
<path d="M19.0156 19.5835C19.0156 19.5835 19.0156 20.9599 19.0156 22.1069C19.0156 25.7773 16.7216 26.3508 15.3452 28.5301C14.3129 30.0213 13.9688 31.8565 13.9688 33.8064V53.1908C13.9688 56.6318 16.8363 59.3846 20.1626 59.3846H31.2886" stroke="#90A4AE" stroke-width="3.50181" stroke-miterlimit="10"/>
<path d="M49.7556 19.5835C49.7556 19.5835 49.7556 20.9599 49.7556 22.1069C49.7556 25.7773 52.0496 26.3508 53.426 28.5301C54.4583 30.0213 54.8024 31.8565 54.8024 33.8064V53.1908C54.8024 56.6318 51.9349 59.3846 48.6086 59.3846H37.4826" stroke="#90A4AE" stroke-width="3.50181" stroke-miterlimit="10"/>
<path d="M37.3676 59.5H31.2885" stroke="#90A4AE" stroke-width="3.50181" stroke-miterlimit="10"/>
</svg>
