<svg width="71" height="70" viewBox="0 0 71 70" fill="none" xmlns="http://www.w3.org/2000/svg">
<path d="M15.8817 35.6341V54.8752C15.8817 58.0659 18.4923 60.5799 21.5864 60.5799H36.9599C40.1507 60.5799 42.6646 57.9693 42.6646 54.8752V42.7891C42.6646 41.0487 41.9878 39.405 40.7308 38.148L31.352 27.899C31.1586 27.7056 30.7718 27.5122 30.4818 27.5122H21.0062C20.5228 27.5122 20.136 27.7056 19.846 28.189L16.2685 33.8937C15.9784 34.4738 15.8817 35.054 15.8817 35.6341Z" stroke="#90A4AE" stroke-width="3.50181" stroke-miterlimit="10"/>
<path d="M31.0619 27.6106V22.196C31.0619 21.1325 31.7388 20.2622 32.7056 19.8755L37.1533 18.2318C37.8302 17.9417 38.4103 17.3616 38.6037 16.6848L39.8606 13.0106C40.4408 11.3669 39.1838 9.72314 37.5401 9.72314H18.299C16.9453 9.72314 15.7851 10.7867 15.7851 12.2371V14.2675C15.8818 14.751 16.0751 15.3311 16.4619 15.7179L20.6195 20.5523C21.0063 21.0358 21.1997 21.6159 21.1997 22.196V26.6437" stroke="#90A4AE" stroke-width="3.50181" stroke-miterlimit="10"/>
<path d="M38.2168 24.9034L35.2195 18.812" stroke="#90A4AE" stroke-width="3.50181" stroke-miterlimit="10" stroke-linecap="round" stroke-linejoin="round"/>
<path d="M49.8212 10.5923L48.4658 11.9477" stroke="#90A4AE" stroke-width="3.50181" stroke-miterlimit="10" stroke-linecap="round" stroke-linejoin="round"/>
<path d="M48.4658 18.6196L49.8212 19.975" stroke="#90A4AE" stroke-width="3.50181" stroke-miterlimit="10" stroke-linecap="round" stroke-linejoin="round"/>
<path d="M53.5905 14.8472H55.5267" stroke="#90A4AE" stroke-width="3.50181" stroke-miterlimit="10" stroke-linecap="round" stroke-linejoin="round"/>
</svg>
