<svg width="71" height="70" viewBox="0 0 71 70" fill="none" xmlns="http://www.w3.org/2000/svg">
<path d="M43.1047 50.7014H26.6922C24.2568 50.7014 22.0332 48.7955 21.8214 46.3601L18.9624 30.477C18.9624 30.2652 18.8566 30.0535 18.8566 29.7358L18.433 17.0294C18.0095 13.1115 20.339 9.72314 23.6215 9.72314H46.1754C49.5638 9.72314 51.8933 13.2174 51.3639 17.2411L50.9403 29.9476C50.9403 30.1593 50.9403 30.3711 50.8344 30.6888L47.9755 46.5718C47.6578 48.7955 45.5401 50.7014 43.1047 50.7014Z" stroke="#90A4AE" stroke-width="3.50181" stroke-miterlimit="10"/>
<path d="M40.6692 31.4295C40.6692 34.3944 38.1279 36.8298 34.8454 36.8298C31.5629 36.8298 29.0216 34.3944 29.0216 31.4295C29.0216 28.4647 33.4689 22.3232 34.8454 22.3232C36.222 22.3232 40.6692 28.3588 40.6692 31.4295Z" stroke="#90A4AE" stroke-width="3.50181" stroke-miterlimit="10"/>
<path d="M41.6224 58.5373H28.1747C26.1629 58.5373 24.5746 56.949 24.5746 54.9371V51.9723C24.5746 51.2311 25.104 50.7017 25.8452 50.7017H43.7401C44.4813 50.7017 45.0108 51.2311 45.0108 51.9723V54.9371C45.1166 56.949 43.5283 58.5373 41.6224 58.5373Z" stroke="#90A4AE" stroke-width="3.50181" stroke-miterlimit="10"/>
</svg>
