<svg width="31" height="32" viewBox="0 0 31 32" fill="none" xmlns="http://www.w3.org/2000/svg">
<path d="M5.75012 6.74989L7.83012 7.10989L8.79312 18.5829C8.87012 19.5199 9.65312 20.2389 10.5931 20.2359H21.5021C22.3991 20.2379 23.1601 19.5779 23.2871 18.6899L24.2361 12.1319C24.3421 11.3989 23.8331 10.7189 23.1011 10.6129C23.0371 10.6039 8.16412 10.5989 8.16412 10.5989" stroke="#90A4AE" stroke-width="1.38172" stroke-linecap="round" stroke-linejoin="round"/>
<path fill-rule="evenodd" clip-rule="evenodd" d="M10.1544 23.7025C10.4554 23.7025 10.6984 23.9465 10.6984 24.2465C10.6984 24.5475 10.4554 24.7915 10.1544 24.7915C9.85341 24.7915 9.61041 24.5475 9.61041 24.2465C9.61041 23.9465 9.85341 23.7025 10.1544 23.7025Z" fill="#90A4AE" stroke="#90A4AE" stroke-width="1.38172" stroke-linecap="round" stroke-linejoin="round"/>
<path fill-rule="evenodd" clip-rule="evenodd" d="M21.4347 23.7025C21.7357 23.7025 21.9797 23.9465 21.9797 24.2465C21.9797 24.5475 21.7357 24.7915 21.4347 24.7915C21.1337 24.7915 20.8907 24.5475 20.8907 24.2465C20.8907 23.9465 21.1337 23.7025 21.4347 23.7025Z" fill="#90A4AE" stroke="#90A4AE" stroke-width="1.38172" stroke-linecap="round" stroke-linejoin="round"/>
</svg>
