<svg width="24" height="24" viewBox="0 0 24 24" fill="none" xmlns="http://www.w3.org/2000/svg">
<path d="M19.9036 11.5V18.8645C19.9036 20 18.9745 20.929 17.839 20.929H6.56452C5.42903 20.929 4.5 20 4.5 18.8645V14" stroke="#90A4AE" stroke-width="1.5" stroke-miterlimit="10" stroke-linecap="round" stroke-linejoin="round"/>
<path d="M5.86477 4C5.1938 4 4.57445 4.4129 4.368 5.03226L3.12929 8.59355C2.66477 9.88387 3.49058 11.071 4.98735 11.071C6.07122 11.071 7.15509 10.4516 7.67122 9.57419C7.92929 10.4516 8.75509 11.071 9.83896 11.071C10.9228 11.071 11.8519 10.4516 12.2648 9.57419C12.6777 10.4516 13.6067 11.071 14.6906 11.071C15.7744 11.071 16.6003 10.4516 16.8583 9.57419C17.4261 10.4516 18.4583 11.071 19.5422 11.071C21.039 11.071 21.8132 9.93548 21.3486 8.59355L20.2648 5.03226C20.0583 4.4129 19.439 4 18.8196 4H5.86477Z" stroke="#90A4AE" stroke-width="1.5" stroke-miterlimit="10" stroke-linecap="round" stroke-linejoin="round"/>
<path d="M14.5 20.5L14.5 16.1161C14.5 14.929 13.5193 14 12.3839 14H12.1774C10.9903 14 10.0613 14.9806 10.0613 16.1161L10.0613 20.5" stroke="#90A4AE" stroke-width="1.5" stroke-miterlimit="10" stroke-linecap="round" stroke-linejoin="round"/>
</svg>
