<svg width="70" height="70" viewBox="0 0 70 70" fill="none" xmlns="http://www.w3.org/2000/svg">
<path d="M31.3202 58.9992H19.0202C17.6202 58.9992 16.4202 57.8992 16.2202 56.4992L14.0202 34.9992C13.8202 32.6992 15.1202 30.6992 16.9202 30.6992H33.4202C35.3202 30.6992 36.6202 32.6992 36.3202 34.9992L34.1202 56.4992C33.9202 57.8992 32.7202 58.9992 31.3202 58.9992Z" stroke="#90A4AE" stroke-width="3.5018" stroke-miterlimit="10"/>
<path d="M50.6204 17.5981H39.9204C37.8204 17.5981 36.1204 15.8981 36.1204 13.7981C36.1204 11.6981 37.8204 9.99805 39.9204 9.99805H50.6204C52.7204 9.99805 54.4204 11.6981 54.4204 13.7981C54.3204 15.8981 52.6204 17.5981 50.6204 17.5981Z" stroke="#90A4AE" stroke-width="3.5018" stroke-miterlimit="10"/>
<path d="M34.22 30.6971V29.4971V28.2972V27.6971C34.22 22.5971 39.92 17.5972 39.92 17.5972H50.62C50.62 17.5972 56.32 22.5971 56.32 27.6971V53.8972C56.32 56.3972 54.32 58.3972 51.82 58.3972H38.82C37.12 58.3972 35.62 57.4972 34.92 56.0972" stroke="#90A4AE" stroke-width="3.5018" stroke-miterlimit="10" stroke-linecap="round" stroke-linejoin="round"/>
</svg>
