<svg width="71" height="70" viewBox="0 0 71 70" fill="none" xmlns="http://www.w3.org/2000/svg">
<path d="M41.4001 17.5015H30.6001C29.8001 17.5015 29.2001 16.9015 29.2001 16.1015V11.9015C29.2001 10.3015 30.5001 9.00146 32.1001 9.00146H39.8001C41.4001 9.00146 42.7001 10.3015 42.7001 11.9015V16.1015C42.7001 16.9015 42.1001 17.5015 41.4001 17.5015Z" stroke="#90A4AE" stroke-width="3.5018" stroke-miterlimit="10" stroke-linecap="round" stroke-linejoin="round"/>
<path d="M39.1 30.6014H24.9C23.7 30.6014 22.8 29.7014 22.8 28.5014V26.5014C22.8 21.8014 26.6 17.9014 31.4 17.9014H40.5C45.2 17.9014 49.1 21.7014 49.1 26.5014V28.5014C49.1 29.7014 48.2 30.6014 47 30.6014H45.6" stroke="#90A4AE" stroke-width="3.5018" stroke-miterlimit="10" stroke-linecap="round" stroke-linejoin="round"/>
<path d="M45.5005 49.7012H45.9005C47.7005 49.7012 49.1005 51.1012 49.1005 52.9012V56.3012C49.1005 58.8012 47.1005 60.7012 44.7005 60.7012H27.3005C24.8005 60.7012 22.9005 58.7012 22.9005 56.3012V52.9012C22.9005 51.1012 24.3005 49.7012 26.1005 49.7012H39.2005" stroke="#90A4AE" stroke-width="3.5018" stroke-miterlimit="10" stroke-linecap="round" stroke-linejoin="round"/>
<path d="M24.4999 30.6006V49.7006" stroke="#90A4AE" stroke-width="3.5018" stroke-miterlimit="10" stroke-linecap="round" stroke-linejoin="round"/>
<path d="M47.3998 30.6006V49.7006" stroke="#90A4AE" stroke-width="3.5018" stroke-miterlimit="10" stroke-linecap="round" stroke-linejoin="round"/>
</svg>
