<svg width="147" height="40" viewBox="0 0 147 40" fill="none" xmlns="http://www.w3.org/2000/svg">
<rect width="147" height="40" rx="8" fill="#FFA400"/>
<path fill-rule="evenodd" clip-rule="evenodd" d="M12.9937 14.7291C12.9937 12.2133 13.0217 11.375 16.4863 11.375C19.951 11.375 19.979 12.2133 19.979 14.7291C19.979 17.2449 19.9901 18.0832 16.4863 18.0832C12.9826 18.0832 12.9937 17.2449 12.9937 14.7291Z" stroke="white" stroke-width="1.49687" stroke-linecap="round" stroke-linejoin="round"/>
<path fill-rule="evenodd" clip-rule="evenodd" d="M23.9707 14.7291C23.9707 12.2133 23.9988 11.375 27.4634 11.375C30.928 11.375 30.9561 12.2133 30.9561 14.7291C30.9561 17.2449 30.9671 18.0832 27.4634 18.0832C23.9597 18.0832 23.9707 17.2449 23.9707 14.7291Z" stroke="white" stroke-width="1.49687" stroke-linecap="round" stroke-linejoin="round"/>
<path fill-rule="evenodd" clip-rule="evenodd" d="M12.9937 25.2721C12.9937 22.7563 13.0217 21.918 16.4863 21.918C19.951 21.918 19.979 22.7563 19.979 25.2721C19.979 27.7878 19.9901 28.6262 16.4863 28.6262C12.9826 28.6262 12.9937 27.7878 12.9937 25.2721Z" stroke="white" stroke-width="1.49687" stroke-linecap="round" stroke-linejoin="round"/>
<path fill-rule="evenodd" clip-rule="evenodd" d="M23.9707 25.2721C23.9707 22.7563 23.9988 21.918 27.4634 21.918C30.928 21.918 30.9561 22.7563 30.9561 25.2721C30.9561 27.7878 30.9671 28.6262 27.4634 28.6262C23.9597 28.6262 23.9707 27.7878 23.9707 25.2721Z" stroke="white" stroke-width="1.49687" stroke-linecap="round" stroke-linejoin="round"/>
<path d="M45.9797 25C45.345 25 45.0277 24.6827 45.0277 24.048V16.082C45.0277 15.4473 45.345 15.13 45.9797 15.13H51.2717C51.757 15.13 51.9997 15.3633 51.9997 15.83C51.9997 16.3153 51.757 16.558 51.2717 16.558H46.7497V19.246H49.4937C50.5484 19.246 51.3697 19.4887 51.9577 19.974C52.555 20.4593 52.8537 21.1733 52.8537 22.116C52.8537 23.0493 52.555 23.7633 51.9577 24.258C51.3697 24.7527 50.5484 25 49.4937 25H45.9797ZM46.7497 23.572H49.2697C50.5017 23.572 51.1177 23.0867 51.1177 22.116C51.1177 21.1547 50.5017 20.674 49.2697 20.674H46.7497V23.572ZM57.0656 27.632C56.4776 27.632 56.1836 27.338 56.1836 26.75V24.762L53.7756 19.204C53.645 18.896 53.645 18.6253 53.7756 18.392C53.9063 18.1587 54.163 18.042 54.5456 18.042C54.7603 18.042 54.933 18.0933 55.0636 18.196C55.1943 18.2893 55.311 18.4713 55.4136 18.742L57.0936 22.942L58.8156 18.728C58.9183 18.4667 59.035 18.2893 59.1656 18.196C59.3056 18.0933 59.4923 18.042 59.7256 18.042C60.0336 18.042 60.2483 18.1587 60.3696 18.392C60.491 18.6253 60.4863 18.8913 60.3556 19.19L57.9336 24.706V26.75C57.9336 27.338 57.6443 27.632 57.0656 27.632ZM62.1134 25.07C61.9081 25.07 61.7354 25.014 61.5954 24.902C61.4647 24.7807 61.3947 24.6267 61.3854 24.44C61.3854 24.2533 61.4647 24.0573 61.6234 23.852L63.5554 21.472L61.7634 19.26C61.5954 19.0547 61.5161 18.8587 61.5254 18.672C61.5347 18.4853 61.6047 18.336 61.7354 18.224C61.8754 18.1027 62.0481 18.042 62.2534 18.042C62.4681 18.042 62.6454 18.0793 62.7854 18.154C62.9347 18.2287 63.0701 18.3453 63.1914 18.504L64.5634 20.268L65.9494 18.504C66.0801 18.3453 66.2154 18.2287 66.3554 18.154C66.4954 18.0793 66.6681 18.042 66.8734 18.042C67.0881 18.042 67.2607 18.1027 67.3914 18.224C67.5221 18.3453 67.5874 18.4993 67.5874 18.686C67.5967 18.8727 67.5174 19.0687 67.3494 19.274L65.5574 21.472L67.5034 23.852C67.6714 24.048 67.7507 24.2393 67.7414 24.426C67.7321 24.6127 67.6574 24.7667 67.5174 24.888C67.3867 25.0093 67.2141 25.07 66.9994 25.07C66.6261 25.07 66.3181 24.916 66.0754 24.608L64.5494 22.69L63.0374 24.608C62.9161 24.7573 62.7854 24.874 62.6454 24.958C62.5054 25.0327 62.3281 25.07 62.1134 25.07ZM75.5262 25.14C75.0315 25.14 74.5882 25.0467 74.1962 24.86C73.8135 24.664 73.5102 24.4027 73.2862 24.076C73.0715 23.7493 72.9642 23.3807 72.9642 22.97C72.9642 22.466 73.0948 22.0693 73.3562 21.78C73.6175 21.4813 74.0422 21.2667 74.6302 21.136C75.2182 21.0053 76.0068 20.94 76.9962 20.94H77.4862V20.646C77.4862 20.1793 77.3835 19.8433 77.1782 19.638C76.9728 19.4327 76.6275 19.33 76.1422 19.33C75.8715 19.33 75.5775 19.3627 75.2602 19.428C74.9522 19.4933 74.6255 19.6053 74.2802 19.764C74.0562 19.8667 73.8695 19.8807 73.7202 19.806C73.5708 19.722 73.4682 19.596 73.4122 19.428C73.3655 19.2507 73.3748 19.0733 73.4402 18.896C73.5148 18.7187 73.6595 18.588 73.8742 18.504C74.3035 18.3267 74.7142 18.2007 75.1062 18.126C75.5075 18.0513 75.8715 18.014 76.1982 18.014C77.1968 18.014 77.9388 18.2473 78.4242 18.714C78.9095 19.1713 79.1522 19.8853 79.1522 20.856V24.216C79.1522 24.8133 78.8815 25.112 78.3402 25.112C77.7895 25.112 77.5142 24.8133 77.5142 24.216V23.908C77.3555 24.2907 77.1035 24.594 76.7582 24.818C76.4128 25.0327 76.0022 25.14 75.5262 25.14ZM75.8902 23.936C76.3475 23.936 76.7255 23.7773 77.0242 23.46C77.3322 23.1427 77.4862 22.7413 77.4862 22.256V21.948H77.0102C76.1328 21.948 75.5215 22.018 75.1762 22.158C74.8402 22.2887 74.6722 22.5313 74.6722 22.886C74.6722 23.194 74.7795 23.446 74.9942 23.642C75.2088 23.838 75.5075 23.936 75.8902 23.936ZM81.9878 25.112C81.3998 25.112 81.1058 24.8133 81.1058 24.216V18.924C81.1058 18.336 81.3998 18.042 81.9878 18.042C82.5665 18.042 82.8558 18.336 82.8558 18.924V20.8H85.8798V18.924C85.8798 18.336 86.1692 18.042 86.7478 18.042C87.3358 18.042 87.6298 18.336 87.6298 18.924V24.216C87.6298 24.8133 87.3358 25.112 86.7478 25.112C86.1692 25.112 85.8798 24.8133 85.8798 24.216V22.172H82.8558V24.216C82.8558 24.8133 82.5665 25.112 81.9878 25.112ZM90.5054 25.112C89.9174 25.112 89.6234 24.8087 89.6234 24.202V19.134C89.6234 18.4807 89.9501 18.154 90.6034 18.154H94.1734C94.6681 18.154 94.9154 18.3827 94.9154 18.84C94.9154 19.2973 94.6681 19.526 94.1734 19.526H91.3734V24.202C91.3734 24.8087 91.0841 25.112 90.5054 25.112ZM96.8338 25.112C96.2925 25.112 96.0218 24.7993 96.0218 24.174V18.882C96.0218 18.322 96.2878 18.042 96.8198 18.042C97.3425 18.042 97.6038 18.322 97.6038 18.882V22.718L100.698 18.602C100.8 18.4713 100.926 18.3453 101.076 18.224C101.225 18.1027 101.43 18.042 101.692 18.042C102.224 18.042 102.49 18.35 102.49 18.966V24.272C102.49 24.832 102.228 25.112 101.706 25.112C101.174 25.112 100.908 24.832 100.908 24.272V20.436L97.8138 24.552C97.7205 24.6827 97.5992 24.8087 97.4498 24.93C97.3098 25.0513 97.1045 25.112 96.8338 25.112ZM109.959 25.112C109.38 25.112 109.091 24.8133 109.091 24.216V19.526H106.935V20.324C106.935 21.6213 106.772 22.648 106.445 23.404C106.128 24.16 105.605 24.692 104.877 25C104.625 25.1027 104.406 25.1167 104.219 25.042C104.032 24.9673 103.892 24.846 103.799 24.678C103.715 24.5007 103.696 24.314 103.743 24.118C103.79 23.922 103.93 23.7587 104.163 23.628C104.63 23.3573 104.938 22.956 105.087 22.424C105.246 21.892 105.325 21.1733 105.325 20.268V19.134C105.325 18.4807 105.652 18.154 106.305 18.154H109.861C110.514 18.154 110.841 18.4807 110.841 19.134V24.216C110.841 24.8133 110.547 25.112 109.959 25.112ZM115.093 25.14C114.598 25.14 114.155 25.0467 113.763 24.86C113.38 24.664 113.077 24.4027 112.853 24.076C112.638 23.7493 112.531 23.3807 112.531 22.97C112.531 22.466 112.661 22.0693 112.923 21.78C113.184 21.4813 113.609 21.2667 114.197 21.136C114.785 21.0053 115.573 20.94 116.563 20.94H117.053V20.646C117.053 20.1793 116.95 19.8433 116.745 19.638C116.539 19.4327 116.194 19.33 115.709 19.33C115.438 19.33 115.144 19.3627 114.827 19.428C114.519 19.4933 114.192 19.6053 113.847 19.764C113.623 19.8667 113.436 19.8807 113.287 19.806C113.137 19.722 113.035 19.596 112.979 19.428C112.932 19.2507 112.941 19.0733 113.007 18.896C113.081 18.7187 113.226 18.588 113.441 18.504C113.87 18.3267 114.281 18.2007 114.673 18.126C115.074 18.0513 115.438 18.014 115.765 18.014C116.763 18.014 117.505 18.2473 117.991 18.714C118.476 19.1713 118.719 19.8853 118.719 20.856V24.216C118.719 24.8133 118.448 25.112 117.907 25.112C117.356 25.112 117.081 24.8133 117.081 24.216V23.908C116.922 24.2907 116.67 24.594 116.325 24.818C115.979 25.0327 115.569 25.14 115.093 25.14ZM115.457 23.936C115.914 23.936 116.292 23.7773 116.591 23.46C116.899 23.1427 117.053 22.7413 117.053 22.256V21.948H116.577C115.699 21.948 115.088 22.018 114.743 22.158C114.407 22.2887 114.239 22.5313 114.239 22.886C114.239 23.194 114.346 23.446 114.561 23.642C114.775 23.838 115.074 23.936 115.457 23.936ZM126.16 25.112C125.582 25.112 125.292 24.8133 125.292 24.216V19.526H123.136V20.324C123.136 21.6213 122.973 22.648 122.646 23.404C122.329 24.16 121.806 24.692 121.078 25C120.826 25.1027 120.607 25.1167 120.42 25.042C120.234 24.9673 120.094 24.846 120 24.678C119.916 24.5007 119.898 24.314 119.944 24.118C119.991 23.922 120.131 23.7587 120.364 23.628C120.831 23.3573 121.139 22.956 121.288 22.424C121.447 21.892 121.526 21.1733 121.526 20.268V19.134C121.526 18.4807 121.853 18.154 122.506 18.154H126.062C126.716 18.154 127.042 18.4807 127.042 19.134V24.216C127.042 24.8133 126.748 25.112 126.16 25.112Z" fill="white"/>
</svg>
