<svg width="118" height="49" viewBox="0 0 118 49" fill="none" xmlns="http://www.w3.org/2000/svg">
<path d="M64.0265 38.0538C63.4909 37.1319 62.594 36.5091 61.5103 36.3098C61.2611 36.26 61.012 36.235 60.7628 36.235C58.8694 36.235 57.0258 37.5306 56.378 39.4116C55.9918 40.5451 56.0915 41.741 56.6521 42.7002C57.1877 43.6344 58.0846 44.2448 59.1684 44.4441C59.3428 44.4815 59.5172 44.494 59.6791 44.5064C61.6473 44.6185 63.6155 43.2981 64.2881 41.3299C64.6868 40.2088 64.5871 39.0129 64.0265 38.0538ZM61.5227 40.3832C61.2611 41.1555 60.4016 41.7036 59.6915 41.5791C59.4549 41.5292 59.2805 41.4296 59.1808 41.2427C59.0562 41.0185 59.0438 40.7071 59.1559 40.3832C59.4175 39.6233 60.2646 39.0628 60.9746 39.1998C61.2113 39.2372 61.3857 39.3493 61.4853 39.5361C61.6224 39.7604 61.6348 40.0718 61.5227 40.3832Z" fill="#60A744"/>
<path d="M81.7527 33.6073C81.242 32.8225 80.4323 32.3242 79.4731 32.1997C79.3236 32.1872 79.1617 32.1623 79.0122 32.1623C77.2807 32.1623 75.6364 33.408 75.1256 35.1644C74.8391 36.1734 74.9761 37.2073 75.5118 38.0295C76.0225 38.8143 76.8322 39.3126 77.7914 39.4371C77.9409 39.4496 78.1028 39.462 78.2523 39.4745C79.9838 39.4745 81.6406 38.2413 82.1389 36.4724C82.4378 35.4758 82.2883 34.4294 81.7527 33.6073ZM79.6724 35.7623C79.4855 36.4475 78.763 36.9707 78.1277 36.8959C77.916 36.871 77.7665 36.7713 77.6668 36.6219C77.5423 36.435 77.5173 36.161 77.5921 35.8744C77.7914 35.1893 78.5014 34.6661 79.1367 34.7409C79.3485 34.7658 79.498 34.8654 79.5976 35.0149C79.7347 35.2142 79.7596 35.4758 79.6724 35.7623Z" fill="#60A744"/>
<path d="M84.1322 28.4502C75.8483 27.2543 66.1195 27.9395 59.1436 29.5589C58.7574 29.6461 58.4585 29.2225 58.6827 28.8862L69.1963 12.8043C70.4545 11.0105 69.433 9.44095 67.8261 9.46587H54.9332V10.0638C54.9456 11.297 55.9546 12.2936 57.2003 12.2811L64.4004 12.2687C64.7118 12.2687 64.8115 12.5552 64.6496 12.8043L51.1836 33.408C50.8971 34.0807 51.0217 34.8406 51.4951 35.3887C51.8314 35.7749 52.3172 36.0115 52.8155 36.0365C53.0148 36.0489 53.2141 36.024 53.4134 35.9742C53.6003 35.9243 67.6268 29.0606 83.8083 31.116C84.8547 31.2405 85.7266 31.4523 85.7266 31.4523C85.8761 30.4184 85.6394 28.6744 84.1322 28.4502Z" fill="#60A744"/>
<path d="M19.0074 17.6997C18.9825 14.9966 18.2476 12.9287 16.8275 11.5086C15.3949 10.0885 13.5513 9.39095 11.2842 9.41587C9.017 9.44078 7.16092 10.1384 5.69101 11.5335C4.23355 12.9287 3.51105 15.0339 3.53596 17.8492C3.56088 20.6645 4.34566 22.7821 5.89032 24.2022C7.43497 25.6223 9.51528 26.3199 12.1312 26.295C13.4392 26.2825 15.3327 26.0708 17.8365 25.6472L17.824 24.277C17.8116 23.6043 17.251 23.0811 16.6157 23.1434C15.0337 23.3053 13.7008 23.3925 12.6046 23.405C10.4745 23.4174 8.99209 22.9939 8.15748 22.1219C7.32286 21.2499 6.89933 20.3157 6.88687 19.3191L18.1105 19.2195C18.6586 19.2195 19.0324 18.908 19.0324 18.2852L19.0074 17.6997ZM6.8495 16.6035C6.83704 15.4948 7.19829 14.4983 7.90834 13.6263C8.61838 12.7543 9.72705 12.3059 11.2343 12.2934C12.7292 12.281 13.8129 12.6796 14.4856 13.4768C15.1583 14.2865 15.5569 15.2955 15.6814 16.5163L6.8495 16.6035Z" fill="#FFA400"/>
<path d="M33.9435 11.483C32.6107 10.0629 30.8542 9.35283 28.6618 9.37774C26.3947 9.3902 24.7628 9.97567 23.7538 11.1342L23.7164 5.85243C23.704 4.55691 22.695 3.52299 21.4493 3.53545L20.4278 3.5479L20.5524 17.9855C20.5773 20.8007 21.3122 22.8935 22.7323 24.2637C24.1649 25.6215 26.0334 26.3067 28.3379 26.2818C30.6425 26.2569 32.4861 25.5593 33.8937 24.1641C35.3013 22.7689 35.9865 20.6637 35.9616 17.8484C35.9616 15.0207 35.2764 12.903 33.9435 11.483ZM31.7262 21.9841C31.0535 22.9059 29.9075 23.3793 28.3006 23.3918C26.7185 23.4042 25.585 22.9558 24.8874 22.0464C24.1898 21.1371 23.841 19.7793 23.8161 17.973C23.7912 15.818 24.1275 14.3356 24.8002 13.5134C25.4853 12.6913 26.6064 12.2802 28.1884 12.2677C29.7829 12.2553 30.9414 12.7286 31.639 13.7003C32.3366 14.6719 32.6978 16.0671 32.7103 17.8858C32.7477 19.6921 32.4113 21.0623 31.7262 21.9841Z" fill="#60A744"/>
<path d="M113.867 9.39107C113.854 9.39107 113.854 9.39107 113.842 9.39107L111.338 9.36615H111.251C111.176 9.36615 111.114 9.36615 111.039 9.36615C110.267 9.37861 109.494 9.50318 108.772 9.76477C108.66 9.80214 108.56 9.85197 108.448 9.9018H108.435C108.336 9.93917 108.249 9.98899 108.161 10.0388C108.087 10.0762 108.012 10.1136 107.925 10.1634C107.813 10.2132 107.7 10.288 107.601 10.3502C107.14 10.6243 106.716 10.9606 106.33 11.3468C106.118 11.5586 105.919 11.7828 105.745 12.0319C105.608 12.2188 105.483 12.4056 105.371 12.6049C104.711 13.751 104.35 15.196 104.287 16.9524V17.6749V17.8991C104.287 18.0611 104.287 18.223 104.287 18.3974L104.337 26.1331H105.359C106.592 26.1207 107.601 26.2702 107.588 24.9996V24.9747L107.613 24.4639L107.601 22.9815L107.539 18.086C107.539 17.9739 107.539 17.8618 107.539 17.7372V17.6251C107.539 17.513 107.539 17.4009 107.539 17.2887C107.539 16.8652 107.576 16.4666 107.613 16.0929C107.738 15.0216 108.049 14.1745 108.51 13.5268C109.158 12.6299 110.242 12.1565 111.736 12.1067H112.197C113.431 12.1191 114.452 11.1226 114.465 9.88934V9.40352L113.867 9.39107Z" fill="#60A744"/>
<path d="M50.7228 9.52825C50.3491 9.52825 50.0252 9.70265 49.8134 9.9767C49.664 10.1636 49.5768 10.4002 49.5768 10.6618V11.0605C48.5927 9.9767 47.0356 9.4286 44.8805 9.37877C44.8307 9.36631 44.7809 9.36631 44.731 9.36631C42.5386 9.35386 40.7822 10.0514 39.4493 11.4715C39.3621 11.5587 39.2874 11.6708 39.2126 11.7705C39.2126 11.7705 39.2126 11.783 39.2002 11.783C39.088 11.92 38.9759 12.0446 38.8763 12.1816C37.8797 13.5394 37.3939 15.4079 37.4188 17.7872V17.8121C37.3939 20.1914 37.8797 22.0599 38.8763 23.4177C38.9759 23.5547 39.088 23.6918 39.2002 23.8163C39.2002 23.8288 39.2002 23.8288 39.2126 23.8288C39.2874 23.9284 39.3746 24.0406 39.4493 24.1278C40.7697 25.5478 42.5386 26.2579 44.731 26.233C44.7809 26.233 44.8307 26.233 44.8805 26.233C47.0356 26.1831 48.5927 25.635 49.5768 24.5513V24.9375C49.5768 25.1866 49.6515 25.4108 49.7885 25.5977C50.0003 25.8842 50.3366 26.0835 50.7228 26.0835H52.7782V19.2197V16.4045V9.52825H50.7228ZM49.5768 18.3602C49.5643 18.6841 49.5394 18.9955 49.502 19.2945C49.365 20.4654 49.0287 21.3872 48.5055 22.0599C48.4806 22.0848 48.4556 22.1222 48.4183 22.1471C47.9823 22.6703 47.4093 23.0191 46.6618 23.2184C46.5373 23.2558 46.4127 23.2807 46.2757 23.2931C45.9518 23.343 45.5906 23.3803 45.1919 23.3803C43.585 23.3928 42.439 22.9194 41.7414 21.9478C41.4299 21.5243 41.1933 21.0011 41.0189 20.4031C40.8071 19.6806 40.695 18.846 40.6701 17.8744V17.7498C40.695 16.7782 40.8071 15.9436 41.0189 15.2211C41.1933 14.6231 41.4424 14.0999 41.7414 13.6764C42.439 12.7048 43.585 12.2314 45.1919 12.2439C45.5781 12.2439 45.9393 12.2812 46.2757 12.3311C46.4127 12.3435 46.5373 12.3684 46.6618 12.4058C47.4093 12.6051 47.9823 12.9539 48.4183 13.4771C48.4556 13.502 48.4806 13.5394 48.5055 13.5643C49.0287 14.237 49.3525 15.1588 49.502 16.3297C49.5394 16.6287 49.5643 16.9401 49.5768 17.264C49.5768 17.4758 49.5768 17.7 49.5768 17.9367C49.5892 18.0986 49.5768 18.2356 49.5768 18.3602Z" fill="#60A744"/>
<path d="M83.5964 9.52825C83.2227 9.52825 82.8988 9.70265 82.687 9.9767C82.5376 10.1636 82.4504 10.4002 82.4504 10.6618V11.0605C81.4663 9.9767 79.9091 9.4286 77.7541 9.37877C77.7043 9.36631 77.6544 9.36631 77.6046 9.36631C75.4122 9.35386 73.6558 10.0514 72.3229 11.4715C72.2357 11.5587 72.1609 11.6708 72.0862 11.7705C72.0862 11.7705 72.0862 11.783 72.0738 11.783C71.9616 11.92 71.8495 12.0446 71.7499 12.1816C70.7533 13.5394 70.2675 15.4079 70.2924 17.7872V17.8121C70.2675 20.1914 70.7533 22.0599 71.7499 23.4177C71.8495 23.5547 71.9616 23.6918 72.0738 23.8163C72.0738 23.8288 72.0737 23.8288 72.0862 23.8288C72.1609 23.9284 72.2481 24.0406 72.3229 24.1278C73.6433 25.5478 75.4122 26.2579 77.6046 26.233C77.6544 26.233 77.7043 26.233 77.7541 26.233C79.9091 26.1831 81.4663 25.635 82.4504 24.5513V24.9375C82.4504 25.1866 82.5251 25.4108 82.6621 25.5977C82.8739 25.8842 83.2102 26.0835 83.5964 26.0835H85.6518V19.2197V16.4045V9.52825H83.5964ZM82.4504 18.3602C82.4379 18.6841 82.413 18.9955 82.3756 19.2945C82.2386 20.4654 81.9023 21.3872 81.3791 22.0599C81.3541 22.0848 81.3292 22.1222 81.2919 22.1471C80.8559 22.6703 80.2828 23.0191 79.5354 23.2184C79.4109 23.2558 79.2863 23.2807 79.1493 23.2931C78.8254 23.343 78.4641 23.3803 78.0655 23.3803C76.4586 23.3928 75.3125 22.9194 74.615 21.9478C74.3035 21.5243 74.0669 21.0011 73.8925 20.4031C73.6807 19.6806 73.5686 18.846 73.5437 17.8744V17.7498C73.5686 16.7782 73.6807 15.9436 73.8925 15.2211C74.0669 14.6231 74.316 14.0999 74.615 13.6764C75.3125 12.7048 76.4586 12.2314 78.0655 12.2439C78.4517 12.2439 78.8129 12.2812 79.1493 12.3311C79.2863 12.3435 79.4109 12.3684 79.5354 12.4058C80.2828 12.6051 80.8559 12.9539 81.2919 13.4771C81.3292 13.502 81.3541 13.5394 81.3791 13.5643C81.9023 14.237 82.2261 15.1588 82.3756 16.3297C82.413 16.6287 82.4379 16.9401 82.4504 17.264C82.4504 17.4758 82.4504 17.7 82.4504 17.9367C82.4504 18.0986 82.4504 18.2356 82.4504 18.3602Z" fill="#60A744"/>
<path d="M100.575 9.52825C100.201 9.52825 99.8776 9.70265 99.6658 9.9767C99.5163 10.1636 99.4291 10.4002 99.4291 10.6618V11.0605C98.445 9.9767 96.8879 9.4286 94.7329 9.37877C94.6831 9.36631 94.6332 9.36631 94.5834 9.36631C92.391 9.35386 90.6346 10.0514 89.3017 11.4715C89.2145 11.5587 89.1397 11.6708 89.065 11.7705C89.065 11.7705 89.065 11.783 89.0525 11.783C88.9404 11.92 88.8283 12.0446 88.7287 12.1816C87.7321 13.5394 87.2463 15.4079 87.2712 17.7872V17.8121C87.2463 20.1914 87.7321 22.0599 88.7287 23.4177C88.8283 23.5547 88.9404 23.6918 89.0525 23.8163C89.0525 23.8288 89.0525 23.8288 89.065 23.8288C89.1397 23.9284 89.2269 24.0406 89.3017 24.1278C90.6221 25.5478 92.391 26.2579 94.5834 26.233C94.6332 26.233 94.6831 26.233 94.7329 26.233C96.8879 26.1831 98.445 25.635 99.4291 24.5513V24.9375C99.4291 25.1866 99.5039 25.4108 99.6409 25.5977C99.8527 25.8842 100.189 26.0835 100.575 26.0835H102.631V19.2197V16.4045V9.52825H100.575ZM99.4291 18.3602C99.4167 18.6841 99.3918 18.9955 99.3544 19.2945C99.2174 20.4654 98.881 21.3872 98.3579 22.0599C98.3329 22.0848 98.308 22.1222 98.2707 22.1471C97.8347 22.6703 97.2616 23.0191 96.5142 23.2184C96.3897 23.2558 96.2651 23.2807 96.1281 23.2931C95.8042 23.343 95.4429 23.3803 95.0443 23.3803C93.4374 23.3928 92.2913 22.9194 91.5938 21.9478C91.2823 21.5243 91.0456 21.0011 90.8712 20.4031C90.6595 19.6806 90.5474 18.846 90.5225 17.8744V17.7498C90.5474 16.7782 90.6595 15.9436 90.8712 15.2211C91.0456 14.6231 91.2948 14.0999 91.5938 13.6764C92.2913 12.7048 93.4374 12.2314 95.0443 12.2439C95.4305 12.2439 95.7917 12.2812 96.1281 12.3311C96.2651 12.3435 96.3897 12.3684 96.5142 12.4058C97.2616 12.6051 97.8347 12.9539 98.2707 13.4771C98.308 13.502 98.3329 13.5394 98.3579 13.5643C98.881 14.237 99.2049 15.1588 99.3544 16.3297C99.3918 16.6287 99.4167 16.9401 99.4291 17.264C99.4291 17.4758 99.4291 17.7 99.4291 17.9367C99.4291 18.0986 99.4291 18.2356 99.4291 18.3602Z" fill="#60A744"/>
</svg>
